<mxfile host="app.diagrams.net" agent="Mozilla/5.0 (Windows NT 10.0; Win64; x64) AppleWebKit/537.36 (KHTML, like Gecko) Chrome/133.0.0.0 Safari/537.36" version="26.0.16">
  <diagram name="Страница — 1" id="9GRvXr8Zy24J4mVr865L">
    <mxGraphModel dx="1434" dy="756" grid="1" gridSize="10" guides="1" tooltips="1" connect="1" arrows="1" fold="1" page="1" pageScale="1" pageWidth="827" pageHeight="1169" math="0" shadow="0">
      <root>
        <mxCell id="0" />
        <mxCell id="1" parent="0" />
        <mxCell id="Od3M2AB7JYsDP9y4lrp4-1" value="Продавець" style="shape=umlActor;verticalLabelPosition=bottom;verticalAlign=top;html=1;outlineConnect=0;fontSize=15;fontFamily=Helvetica;" parent="1" vertex="1">
          <mxGeometry x="120" y="265" width="30" height="60" as="geometry" />
        </mxCell>
        <mxCell id="Od3M2AB7JYsDP9y4lrp4-3" value="ввести нове значення" style="ellipse;whiteSpace=wrap;html=1;fontFamily=Helvetica;fontSize=15;" parent="1" vertex="1">
          <mxGeometry x="300" y="255" width="120" height="80" as="geometry" />
        </mxCell>
        <mxCell id="Od3M2AB7JYsDP9y4lrp4-4" value="&lt;span id=&quot;docs-internal-guid-50df3b2d-7fff-fedf-c221-4941203f4315&quot;&gt;&lt;span style=&quot;font-size: 12pt; background-color: transparent; font-variant-numeric: normal; font-variant-east-asian: normal; font-variant-alternates: normal; font-variant-position: normal; font-variant-emoji: normal; vertical-align: baseline; white-space-collapse: preserve;&quot;&gt;&lt;font style=&quot;color: light-dark(rgb(0, 0, 0), rgb(255, 255, 255));&quot;&gt;Змінити існуюче замовлення&lt;/font&gt;&lt;/span&gt;&lt;/span&gt;" style="ellipse;whiteSpace=wrap;html=1;fontFamily=Helvetica;fontSize=15;" parent="1" vertex="1">
          <mxGeometry x="300" y="385" width="120" height="80" as="geometry" />
        </mxCell>
        <mxCell id="Od3M2AB7JYsDP9y4lrp4-6" value="" style="endArrow=classic;html=1;rounded=0;entryX=0;entryY=0.5;entryDx=0;entryDy=0;fontFamily=Helvetica;fontSize=15;" parent="1" source="Od3M2AB7JYsDP9y4lrp4-1" target="Od3M2AB7JYsDP9y4lrp4-4" edge="1">
          <mxGeometry width="50" height="50" relative="1" as="geometry">
            <mxPoint x="250" y="535" as="sourcePoint" />
            <mxPoint x="300" y="485" as="targetPoint" />
          </mxGeometry>
        </mxCell>
        <mxCell id="Od3M2AB7JYsDP9y4lrp4-7" value="" style="endArrow=classic;html=1;rounded=0;entryX=0;entryY=0.5;entryDx=0;entryDy=0;fontFamily=Helvetica;fontSize=15;" parent="1" source="Od3M2AB7JYsDP9y4lrp4-1" target="Od3M2AB7JYsDP9y4lrp4-3" edge="1">
          <mxGeometry width="50" height="50" relative="1" as="geometry">
            <mxPoint x="250" y="535" as="sourcePoint" />
            <mxPoint x="300" y="485" as="targetPoint" />
          </mxGeometry>
        </mxCell>
        <mxCell id="Od3M2AB7JYsDP9y4lrp4-8" value="&lt;span id=&quot;docs-internal-guid-d53bb96a-7fff-5f7c-4c9c-ce3835ca8b39&quot;&gt;&lt;span style=&quot;font-size: 12pt; color: rgb(0, 0, 0); background-color: transparent; font-variant-numeric: normal; font-variant-east-asian: normal; font-variant-alternates: normal; font-variant-position: normal; font-variant-emoji: normal; vertical-align: baseline; white-space-collapse: preserve;&quot;&gt;Надрукувати інвентарний опис&lt;/span&gt;&lt;/span&gt;" style="ellipse;whiteSpace=wrap;html=1;fontFamily=Helvetica;fontSize=15;" parent="1" vertex="1">
          <mxGeometry x="290" y="535" width="120" height="80" as="geometry" />
        </mxCell>
        <mxCell id="Od3M2AB7JYsDP9y4lrp4-9" value="&#xa;&lt;b id=&quot;docs-internal-guid-5e5eb576-7fff-8a3f-d154-452c90cc8c2f&quot; style=&quot;font-weight:normal;&quot;&gt;&lt;span style=&quot;font-size: 12pt; color: rgb(0, 0, 0); background-color: transparent; font-weight: 400; font-style: normal; font-variant: normal; text-decoration: none; vertical-align: baseline; white-space: pre-wrap;&quot;&gt;Обновити інвентарний опис&lt;/span&gt;&lt;/b&gt;&#xa;&#xa;" style="ellipse;whiteSpace=wrap;html=1;fontFamily=Helvetica;fontSize=15;" parent="1" vertex="1">
          <mxGeometry x="290" y="695" width="120" height="80" as="geometry" />
        </mxCell>
        <mxCell id="Od3M2AB7JYsDP9y4lrp4-10" value="&#xa;&lt;b id=&quot;docs-internal-guid-3a001b0d-7fff-acda-2b60-45e197c3642b&quot; style=&quot;font-weight:normal;&quot;&gt;&lt;span style=&quot;font-size: 12pt; color: rgb(0, 0, 0); background-color: transparent; font-weight: 400; font-style: normal; font-variant: normal; text-decoration: none; vertical-align: baseline; white-space: pre-wrap;&quot;&gt;Оформити замовлення&lt;/span&gt;&lt;/b&gt;&#xa;&#xa;" style="ellipse;whiteSpace=wrap;html=1;fontFamily=Helvetica;fontSize=15;" parent="1" vertex="1">
          <mxGeometry x="290" y="835" width="120" height="80" as="geometry" />
        </mxCell>
        <mxCell id="Od3M2AB7JYsDP9y4lrp4-11" value="&lt;span id=&quot;docs-internal-guid-d8070686-7fff-dec4-878a-1f3fb1e250ed&quot;&gt;&lt;span style=&quot;font-size: 12pt; color: rgb(0, 0, 0); background-color: transparent; font-variant-numeric: normal; font-variant-east-asian: normal; font-variant-alternates: normal; font-variant-position: normal; font-variant-emoji: normal; vertical-align: baseline; white-space-collapse: preserve;&quot;&gt;Відклонити замовлення&lt;/span&gt;&lt;/span&gt;" style="ellipse;whiteSpace=wrap;html=1;fontFamily=Helvetica;fontSize=15;" parent="1" vertex="1">
          <mxGeometry x="527" y="835" width="120" height="80" as="geometry" />
        </mxCell>
        <mxCell id="Od3M2AB7JYsDP9y4lrp4-12" value="Бухгалтерська система&lt;div&gt;&lt;br&gt;&lt;/div&gt;" style="shape=umlActor;verticalLabelPosition=bottom;verticalAlign=top;html=1;outlineConnect=0;fontFamily=Helvetica;fontSize=15;" parent="1" vertex="1">
          <mxGeometry x="572" y="265" width="30" height="60" as="geometry" />
        </mxCell>
        <mxCell id="Od3M2AB7JYsDP9y4lrp4-13" value="" style="endArrow=classic;html=1;rounded=0;exitX=1;exitY=0.5;exitDx=0;exitDy=0;fontFamily=Helvetica;fontSize=15;" parent="1" source="Od3M2AB7JYsDP9y4lrp4-3" target="Od3M2AB7JYsDP9y4lrp4-12" edge="1">
          <mxGeometry width="50" height="50" relative="1" as="geometry">
            <mxPoint x="310" y="655" as="sourcePoint" />
            <mxPoint x="360" y="605" as="targetPoint" />
          </mxGeometry>
        </mxCell>
        <mxCell id="Od3M2AB7JYsDP9y4lrp4-14" value="&lt;span id=&quot;docs-internal-guid-5a6aeefe-7fff-5760-7ca2-a2f81deb77d2&quot;&gt;&lt;span style=&quot;font-size: 12pt; color: rgb(0, 0, 0); background-color: transparent; font-variant-numeric: normal; font-variant-east-asian: normal; font-variant-alternates: normal; font-variant-position: normal; font-variant-emoji: normal; vertical-align: baseline; white-space: pre-wrap;&quot;&gt;Керуючий магазином&lt;/span&gt;&lt;/span&gt;" style="shape=umlActor;verticalLabelPosition=bottom;verticalAlign=top;html=1;outlineConnect=0;fontFamily=Helvetica;fontSize=15;" parent="1" vertex="1">
          <mxGeometry x="120" y="615" width="30" height="60" as="geometry" />
        </mxCell>
        <mxCell id="Od3M2AB7JYsDP9y4lrp4-15" value="&lt;span id=&quot;docs-internal-guid-3f1e1817-7fff-8f03-f49e-94d013aba894&quot;&gt;&lt;span style=&quot;font-size: 12pt; color: rgb(0, 0, 0); background-color: transparent; font-variant-numeric: normal; font-variant-east-asian: normal; font-variant-alternates: normal; font-variant-position: normal; font-variant-emoji: normal; vertical-align: baseline; white-space: pre-wrap;&quot;&gt;Клерк в магазині Бізіна&lt;/span&gt;&lt;/span&gt;" style="shape=umlActor;verticalLabelPosition=bottom;verticalAlign=top;html=1;outlineConnect=0;fontFamily=Helvetica;fontSize=15;" parent="1" vertex="1">
          <mxGeometry x="120" y="845" width="30" height="60" as="geometry" />
        </mxCell>
        <mxCell id="Od3M2AB7JYsDP9y4lrp4-16" value="" style="endArrow=classic;html=1;rounded=0;entryX=0;entryY=0.5;entryDx=0;entryDy=0;fontFamily=Helvetica;fontSize=15;" parent="1" source="Od3M2AB7JYsDP9y4lrp4-14" target="Od3M2AB7JYsDP9y4lrp4-8" edge="1">
          <mxGeometry width="50" height="50" relative="1" as="geometry">
            <mxPoint x="240" y="655" as="sourcePoint" />
            <mxPoint x="290" y="605" as="targetPoint" />
          </mxGeometry>
        </mxCell>
        <mxCell id="Od3M2AB7JYsDP9y4lrp4-17" value="" style="endArrow=classic;html=1;rounded=0;fontFamily=Helvetica;fontSize=15;" parent="1" source="Od3M2AB7JYsDP9y4lrp4-14" target="Od3M2AB7JYsDP9y4lrp4-9" edge="1">
          <mxGeometry width="50" height="50" relative="1" as="geometry">
            <mxPoint x="240" y="655" as="sourcePoint" />
            <mxPoint x="290" y="605" as="targetPoint" />
          </mxGeometry>
        </mxCell>
        <mxCell id="Od3M2AB7JYsDP9y4lrp4-18" value="" style="endArrow=classic;html=1;rounded=0;fontFamily=Helvetica;fontSize=15;" parent="1" source="Od3M2AB7JYsDP9y4lrp4-15" target="Od3M2AB7JYsDP9y4lrp4-10" edge="1">
          <mxGeometry width="50" height="50" relative="1" as="geometry">
            <mxPoint x="240" y="775" as="sourcePoint" />
            <mxPoint x="290" y="725" as="targetPoint" />
          </mxGeometry>
        </mxCell>
        <mxCell id="Od3M2AB7JYsDP9y4lrp4-19" value="" style="shape=flexArrow;endArrow=classic;html=1;rounded=0;exitX=0;exitY=0.5;exitDx=0;exitDy=0;entryX=1;entryY=0.5;entryDx=0;entryDy=0;fontFamily=Helvetica;fontSize=15;" parent="1" source="Od3M2AB7JYsDP9y4lrp4-11" target="Od3M2AB7JYsDP9y4lrp4-10" edge="1">
          <mxGeometry width="50" height="50" relative="1" as="geometry">
            <mxPoint x="360" y="775" as="sourcePoint" />
            <mxPoint x="410" y="725" as="targetPoint" />
          </mxGeometry>
        </mxCell>
        <mxCell id="Od3M2AB7JYsDP9y4lrp4-23" value="&amp;lt;&amp;lt;Extend&amp;gt;&amp;gt;" style="text;html=1;align=center;verticalAlign=middle;resizable=0;points=[];autosize=1;strokeColor=none;fillColor=none;fontSize=15;" parent="1" vertex="1">
          <mxGeometry x="420" y="835" width="110" height="30" as="geometry" />
        </mxCell>
      </root>
    </mxGraphModel>
  </diagram>
</mxfile>
